<?xml version="1.0" encoding="UTF-8"?>
<svg id="Layer_1" xmlns="http://www.w3.org/2000/svg" version="1.1" xmlns:xlink="http://www.w3.org/1999/xlink" viewBox="0 0 10 10">
  <!-- Generator: Adobe Illustrator 29.5.1, SVG Export Plug-In . SVG Version: 2.1.0 Build 141)  -->
  <defs>
    <clipPath id="clippath">
      <rect width="10" height="10" fill="none"/>
    </clipPath>
    <linearGradient id="linear-gradient" x1="2.12" y1="11.34" x2="6.94" y2="4.72" gradientTransform="translate(0 12) scale(1 -1)" gradientUnits="userSpaceOnUse">
      <stop offset="0" stop-color="#0195ff"/>
      <stop offset=".99" stop-color="#1147e9"/>
    </linearGradient>
    <linearGradient id="linear-gradient1" x1="5.55" y1="6.4" x2="9.05" y2="2.63" gradientTransform="translate(0 12) scale(1 -1)" gradientUnits="userSpaceOnUse">
      <stop offset="0" stop-color="#1348ff"/>
      <stop offset="1" stop-color="#06238d"/>
    </linearGradient>
  </defs>
  <g clip-path="url(#clippath)">
    <g>
      <path d="M4.97,0c1.26,0,2.2.71,2.71,1.76,1.2.11,2.21,1.14,2.31,2.51-.17-.08-.35-.14-.55-.16h-.16s-3.95,0-3.95,0c-.88,0-1.59.71-1.59,1.59v1.53h-1.34c-.71,0-1.31-.22-1.74-.66C.24,6.14.05,5.55.05,4.93c0-.67.24-1.3.72-1.74.35-.32.8-.51,1.31-.55C2.26,1.29,3.39,0,4.97,0Z" fill="url(#linear-gradient)"/>
      <path d="M10,5.71c0-.4-.32-.72-.72-.72h-3.95c-.4,0-.72.32-.72.72v3.58c0,.4.32.72.72.72h3.95c.4,0,.72-.32.72-.72v-3.58ZM5.57,7.36s-.09.04-.09.09v1.51s.04.09.09.09h3.46s.09-.04.09-.09v-1.51s-.04-.09-.09-.09h-3.46ZM7.31,6.04c0-.17-.14-.3-.3-.3s-.3.14-.3.3c0,.17.14.3.3.3.17,0,.3-.13.3-.3ZM7.91,5.74c.17,0,.3.14.3.3,0,.17-.14.3-.3.3-.17,0-.3-.13-.3-.3,0-.17.13-.3.3-.3ZM9.11,6.04c0-.17-.13-.3-.3-.3-.17,0-.3.14-.3.3,0,.17.14.3.3.3.17,0,.3-.13.3-.3Z" fill="url(#linear-gradient1)" fill-rule="evenodd"/>
    </g>
  </g>
</svg>