<?xml version="1.0" encoding="UTF-8"?>
<svg id="Layer_1" xmlns="http://www.w3.org/2000/svg" version="1.1" xmlns:xlink="http://www.w3.org/1999/xlink" viewBox="0 0 8.83 9.99">
  <!-- Generator: Adobe Illustrator 29.5.1, SVG Export Plug-In . SVG Version: 2.1.0 Build 141)  -->
  <defs>
    <clipPath id="clippath">
      <rect y="-.01" width="10" height="10" fill="none"/>
    </clipPath>
    <linearGradient id="linear-gradient" x1=".98" y1="11.4" x2="2.32" y2="10.05" gradientTransform="translate(0 12.38) scale(1 -1)" gradientUnits="userSpaceOnUse">
      <stop offset="0" stop-color="#1348ff"/>
      <stop offset="1" stop-color="#06238d"/>
    </linearGradient>
    <linearGradient id="linear-gradient1" x1=".42" y1="10.05" x2="6.92" y2="5.09" gradientTransform="translate(0 12.38) scale(1 -1)" gradientUnits="userSpaceOnUse">
      <stop offset="0" stop-color="#0195ff"/>
      <stop offset=".99" stop-color="#1147e9"/>
    </linearGradient>
    <linearGradient id="linear-gradient2" x1="5.36" y1="5.77" x2="7.99" y2="2.81" gradientTransform="translate(0 12.38) scale(1 -1)" gradientUnits="userSpaceOnUse">
      <stop offset="0" stop-color="#1348ff"/>
      <stop offset="1" stop-color="#06238d"/>
    </linearGradient>
  </defs>
  <g clip-path="url(#clippath)">
    <g>
      <path d="M2.61,1.79V.7l-1.92,1.92h1.09c.23,0,.42-.08.58-.24.16-.16.24-.36.24-.58Z" fill="url(#linear-gradient)"/>
      <path d="M6.29,0h-2.81c-.11,0-.21.04-.29.12-.08.08-.12.18-.12.29v1.43c0,.34-.12.62-.36.86-.24.24-.53.36-.86.36H.41c-.11,0-.21.04-.29.12s-.12.18-.12.29v5.09c0,.59.48,1.06,1.06,1.06h4.97c-.01-.14,0-.27.03-.4h-1.03c-.62,0-1.12-.5-1.12-1.12s.5-1.12,1.12-1.12h1.03c-.1-.36-.01-.76.25-1.05.27-.3.67-.4,1.03-.31V1.06c0-.59-.48-1.06-1.06-1.06ZM1.8,4.66v1.18h-.62v-1.18c0-.35.28-.62.62-.62h1.3v.62h-1.3ZM5.43,5.84h.62v-1.18c0-.35-.28-.62-.62-.62h-1.3v.62h1.3v1.18ZM1.8,6.45h-.62v1.18c0,.35.28.62.62.62h1.3v-.62h-1.3v-1.18Z" fill="url(#linear-gradient1)" fill-rule="evenodd"/>
      <path d="M6.76,9.18c-.17.18-.17.48,0,.67.17.18.44.18.61,0l1.3-1.42c.17-.18.17-.48,0-.67l-1.3-1.42c-.17-.18-.44-.18-.61,0-.17.18-.17.48,0,.67l.54.58h-2.24c-.28,0-.5.22-.5.5s.22.5.5.5h2.24l-.54.58Z" fill="url(#linear-gradient2)"/>
    </g>
  </g>
</svg>