<?xml version="1.0" encoding="UTF-8"?>
<svg id="Layer_1" xmlns="http://www.w3.org/2000/svg" version="1.1" xmlns:xlink="http://www.w3.org/1999/xlink" viewBox="0 0 10 10">
  <!-- Generator: Adobe Illustrator 29.5.1, SVG Export Plug-In . SVG Version: 2.1.0 Build 141)  -->
  <defs>
    <clipPath id="clippath">
      <rect width="10" height="10" fill="none"/>
    </clipPath>
    <linearGradient id="linear-gradient" x1="2.74" y1="6.67" x2="4.67" y2="3.61" gradientTransform="translate(0 13.2) scale(1 -1)" gradientUnits="userSpaceOnUse">
      <stop offset="0" stop-color="#0195ff"/>
      <stop offset=".99" stop-color="#1147e9"/>
    </linearGradient>
    <linearGradient id="linear-gradient1" x1="7.19" y1="6.72" x2="9.74" y2="4.28" gradientTransform="translate(0 13.2) scale(1 -1)" gradientUnits="userSpaceOnUse">
      <stop offset="0" stop-color="#0bf"/>
      <stop offset="1" stop-color="#008bff"/>
    </linearGradient>
    <linearGradient id="linear-gradient2" x1="6.26" y1="5.74" x2="8.81" y2="3.3" gradientTransform="translate(0 13.2) scale(1 -1)" gradientUnits="userSpaceOnUse">
      <stop offset="0" stop-color="#0bf"/>
      <stop offset="1" stop-color="#008bff"/>
    </linearGradient>
    <linearGradient id="linear-gradient3" x1="3.56" y1="12.55" x2="4.17" y2="10.96" gradientTransform="translate(0 13.2) scale(1 -1)" gradientUnits="userSpaceOnUse">
      <stop offset="0" stop-color="#1348ff"/>
      <stop offset="1" stop-color="#06238d"/>
    </linearGradient>
    <linearGradient id="linear-gradient4" x1="5.7" y1="13.37" x2="6.31" y2="11.78" gradientTransform="translate(0 13.2) scale(1 -1)" gradientUnits="userSpaceOnUse">
      <stop offset="0" stop-color="#1348ff"/>
      <stop offset="1" stop-color="#06238d"/>
    </linearGradient>
    <linearGradient id="linear-gradient5" x1="6" y1="9.83" x2="6.62" y2="9.22" gradientTransform="translate(0 13.2) scale(1 -1)" gradientUnits="userSpaceOnUse">
      <stop offset="0" stop-color="#1348ff"/>
      <stop offset="1" stop-color="#06238d"/>
    </linearGradient>
    <linearGradient id="linear-gradient6" x1="3.25" y1="9.83" x2="3.87" y2="9.22" gradientTransform="translate(0 13.2) scale(1 -1)" gradientUnits="userSpaceOnUse">
      <stop offset="0" stop-color="#1348ff"/>
      <stop offset="1" stop-color="#06238d"/>
    </linearGradient>
    <linearGradient id="linear-gradient7" x1="3.61" y1="11.83" x2="6.38" y2="7.21" gradientTransform="translate(0 13.2) scale(1 -1)" gradientUnits="userSpaceOnUse">
      <stop offset="0" stop-color="#0bf"/>
      <stop offset="1" stop-color="#008bff"/>
    </linearGradient>
  </defs>
  <g clip-path="url(#clippath)">
    <g>
      <path d="M6.1,6.55h-3.81c-.28,0-.53.1-.73.3s-.3.45-.3.74v1.83c0,.1.08.19.19.19h4.28c-.03-.09-.04-.18-.04-.27v-.63c0-.23.08-.45.25-.62-.04-.04-.07-.08-.1-.13l-.04-.06-.03-.06c-.05-.11-.08-.24-.08-.38,0-.12.02-.22.05-.31v-.04s.03-.04.03-.04c.09-.19.2-.36.32-.51Z" fill="url(#linear-gradient)"/>
      <path d="M8.52,7.81c-.07-.07-.1-.16-.1-.25s.03-.18.1-.25c.01-.01.03-.03.04-.04-.05-.03-.1-.06-.15-.09-.15-.08-.31-.11-.48-.11-.23,0-.43.06-.6.17-.18.11-.31.26-.4.46-.03.07-.08.13-.14.17h0c-.05.03-.11.04-.17.04-.02,0-.05,0-.08,0-.02,0-.05-.01-.07-.02-.06-.02-.11-.06-.15-.12h0s0-.03,0-.03c-.02-.05-.03-.11-.03-.16,0-.05,0-.09.02-.13h0s0-.02,0-.02c.15-.32.37-.58.66-.76.3-.19.62-.29.98-.29.29,0,.56.07.81.2.12.06.24.14.34.22.02-.04.04-.07.07-.1.07-.07.16-.11.25-.11s.18.04.25.11c.07.07.11.15.11.25v.63c0,.1-.04.19-.11.25-.07.07-.15.1-.24.1h-.63c-.09,0-.18-.03-.24-.09h0s0,0,0,0Z" fill="url(#linear-gradient1)"/>
      <path d="M7.48,8.57c.07.07.1.16.1.25s-.03.18-.1.25c-.01.01-.03.03-.04.04.05.03.1.06.15.09.15.08.31.11.48.11.23,0,.42-.06.6-.17.18-.11.31-.26.4-.46.03-.07.08-.13.14-.17h0c.05-.03.11-.04.17-.04.02,0,.05,0,.08,0,.02,0,.05.01.07.02.06.02.11.06.15.12h0s0,.03,0,.03c.02.05.03.11.03.16,0,.05,0,.09-.02.13h0s0,.02,0,.02c-.15.32-.37.58-.66.76-.3.19-.62.29-.98.29-.29,0-.56-.07-.81-.2-.12-.06-.24-.14-.34-.22-.02.04-.04.07-.07.1-.07.07-.16.11-.25.11s-.18-.04-.25-.11c-.07-.07-.11-.15-.11-.25v-.63c0-.1.04-.19.11-.25.07-.07.15-.1.24-.1h.63c.09,0,.18.03.24.09h0s0,0,0,0Z" fill="url(#linear-gradient2)"/>
      <path d="M4.24,1.67v-.84c0-.26-.21-.47-.47-.47s-.47.21-.47.47v.84h.94Z" fill="url(#linear-gradient3)"/>
      <path d="M6.7.83c0-.26-.21-.47-.47-.47s-.47.21-.47.47v.84h.94v-.84Z" fill="url(#linear-gradient4)"/>
      <path d="M6.62,3.98c-.09.09-.19.13-.31.13-.11,0-.21-.04-.3-.13s-.13-.19-.13-.31.04-.22.13-.31c.08-.09.19-.13.3-.13s.22.04.31.13c.09.09.13.19.13.31s-.04.22-.13.31Z" fill="url(#linear-gradient5)"/>
      <path d="M3.87,3.98c-.09.09-.19.13-.31.13-.11,0-.21-.04-.3-.13-.09-.09-.13-.19-.13-.31s.04-.22.13-.31c.08-.09.19-.13.3-.13s.22.04.31.13c.09.09.13.19.13.31s-.04.22-.13.31Z" fill="url(#linear-gradient6)"/>
      <path d="M7.36,2.81h0c-.27-.26-.56-.38-.94-.38h-2.85c-.36,0-.65.12-.93.38-.27.26-.38.54-.38.87s.11.6.38.86c.27.26.57.38.93.38h2.85c.38,0,.67-.12.94-.38.27-.26.38-.53.38-.86s-.11-.61-.38-.87ZM1.94,5.26c.46.44,1,.66,1.62.66h2.85c.63,0,1.18-.22,1.63-.66.46-.44.68-.97.68-1.58s-.23-1.14-.68-1.58c-.46-.44-1-.66-1.63-.66h-2.85c-.63,0-1.17.22-1.62.67-.46.44-.69.97-.69,1.58s.23,1.14.69,1.58Z" fill="url(#linear-gradient7)" fill-rule="evenodd"/>
    </g>
  </g>
</svg>