<?xml version="1.0" encoding="UTF-8"?>
<svg id="Layer_1" xmlns="http://www.w3.org/2000/svg" version="1.1" xmlns:xlink="http://www.w3.org/1999/xlink" viewBox="0 0 10 10">
  <!-- Generator: Adobe Illustrator 29.5.1, SVG Export Plug-In . SVG Version: 2.1.0 Build 141)  -->
  <defs>
    <clipPath id="clippath">
      <rect width="10" height="10" fill="none"/>
    </clipPath>
    <linearGradient id="linear-gradient" x1="1.75" y1="10.48" x2="8.73" y2="4.03" gradientTransform="translate(0 12) scale(1 -1)" gradientUnits="userSpaceOnUse">
      <stop offset="0" stop-color="#0195ff"/>
      <stop offset=".99" stop-color="#1147e9"/>
    </linearGradient>
    <linearGradient id="linear-gradient1" x1="1.51" y1="10.23" x2="8.49" y2="3.78" gradientTransform="translate(0 12) scale(1 -1)" gradientUnits="userSpaceOnUse">
      <stop offset="0" stop-color="#0195ff"/>
      <stop offset=".99" stop-color="#1147e9"/>
    </linearGradient>
  </defs>
  <g clip-path="url(#clippath)">
    <g>
      <path d="M5.83,5.26h-1.55l.76-2.05h.03l.76,2.05Z" fill="url(#linear-gradient)"/>
      <path d="M4.66,10h.68c.23,0,.44-.08.62-.23.18-.14.3-.33.35-.57l.12-.64.86-.51.59.25c.12.04.24.06.37.06.18,0,.35-.05.51-.14.17-.09.3-.23.39-.41l.35-.72c.08-.14.12-.29.12-.45,0-.33-.14-.59-.41-.8l-.47-.33v-1.02l.47-.35c.27-.2.41-.46.41-.78,0-.17-.04-.32-.12-.45l-.35-.72c-.09-.18-.22-.32-.39-.41-.16-.09-.33-.14-.51-.14-.14,0-.27.03-.37.08l-.59.23-.86-.51-.12-.64c-.05-.23-.17-.42-.35-.57C5.78.08,5.58,0,5.34,0h-.68C4.42,0,4.22.08,4.03.23c-.18.14-.3.33-.35.57l-.14.64-.84.51-.59-.23c-.1-.05-.23-.08-.37-.08-.18,0-.36.05-.53.14-.16.09-.28.23-.37.41l-.37.72c-.07.16-.1.3-.1.43,0,.34.13.61.39.8l.47.35v1.02l-.45.33c-.27.21-.41.48-.41.82,0,.13.03.27.1.43l.37.72c.09.18.21.32.37.41.17.09.35.14.53.14.12,0,.24-.02.37-.06l.59-.25.84.51.14.64c.04.23.15.42.33.57.2.16.41.23.64.23ZM3.15,6.8c.06.09.15.14.28.14.06,0,.13-.02.19-.06.06-.04.1-.09.12-.15l.35-.92h1.94l.34.91c.02.06.06.11.12.16.06.04.12.06.2.06.14,0,.24-.05.3-.15.06-.1.07-.21.02-.34l-1.41-3.58c-.04-.1-.11-.18-.21-.25-.1-.07-.2-.1-.31-.1s-.21.03-.31.1c-.1.07-.17.15-.21.25l-1.44,3.59c-.05.12-.04.23.02.33Z" fill="url(#linear-gradient1)" fill-rule="evenodd"/>
    </g>
  </g>
</svg>