<?xml version="1.0" encoding="UTF-8"?>
<svg id="Layer_1" xmlns="http://www.w3.org/2000/svg" version="1.1" xmlns:xlink="http://www.w3.org/1999/xlink" viewBox="0 0 10 10">
  <!-- Generator: Adobe Illustrator 29.5.1, SVG Export Plug-In . SVG Version: 2.1.0 Build 141)  -->
  <defs>
    <clipPath id="clippath">
      <rect width="10" height="10" fill="none"/>
    </clipPath>
    <linearGradient id="linear-gradient" x1="1.6" y1="11.06" x2="7.13" y2="4.9" gradientTransform="translate(0 12.01) scale(1 -1)" gradientUnits="userSpaceOnUse">
      <stop offset="0" stop-color="#0195ff"/>
      <stop offset=".99" stop-color="#1147e9"/>
    </linearGradient>
    <linearGradient id="linear-gradient1" x1="-1.82" y1="7.99" x2="3.72" y2="1.83" gradientTransform="translate(0 12.01) scale(1 -1)" gradientUnits="userSpaceOnUse">
      <stop offset="0" stop-color="#0195ff"/>
      <stop offset=".99" stop-color="#1147e9"/>
    </linearGradient>
    <linearGradient id="linear-gradient2" x1="5.79" y1="8.2" x2="9.32" y2="3.15" gradientTransform="translate(0 12.01) scale(1 -1)" gradientUnits="userSpaceOnUse">
      <stop offset="0" stop-color="#1348ff"/>
      <stop offset="1" stop-color="#06238d"/>
    </linearGradient>
    <linearGradient id="linear-gradient3" x1="3.01" y1="6.26" x2="6.54" y2="1.21" gradientTransform="translate(0 12.01) scale(1 -1)" gradientUnits="userSpaceOnUse">
      <stop offset="0" stop-color="#1348ff"/>
      <stop offset="1" stop-color="#06238d"/>
    </linearGradient>
  </defs>
  <g clip-path="url(#clippath)">
    <g>
      <path d="M.9,7.95c-.26,0-.52-.09-.75-.28-.05-.05-.1-.1-.14-.15l.74-.74,1.16-1.13h0s.01,0,.01,0l.26-.26c.38-.37.96-.64,1.64-.75l.1-.02h.02c.92-.16,2.18-.38,3.1-1.46.16-.19.14-.48-.05-.64-.19-.16-.48-.14-.64.05-.72.84-1.75,1.02-2.59,1.16l-.1.02c-.73.12-1.38.4-1.87.78l-.74.69c-.11-.3-.18-.62-.18-.95,0-1.79,2.1-3.12,3.98-3.12h.37c.9.02,1.44.02,2.5-1.01C7.8.05,7.91,0,8.03,0c.71,0,.82,1.41.82,2.26,0,.41-.03,1.02-.19,1.69-.43-.15-.93-.05-1.28.29-.25.25-.38.58-.37.91h-1.3c-.49,0-.91.28-1.11.68-.46-.21-1.02-.12-1.4.27l-1.11,1.13-.45.42c-.2.2-.47.3-.74.3h0Z" fill="url(#linear-gradient)"/>
      <path d="M.07,6.16l.04-.04s-.03.03-.04.04Z" fill="url(#linear-gradient1)"/>
      <path d="M7.9,4.78c-.2.19-.2.51,0,.71l.41.41h-2.6c-.28,0-.5.22-.5.5s.22.5.5.5h2.6s-.41.41-.41.41c-.19.2-.19.51,0,.71s.51.19.71,0l1.24-1.26s.04-.04.05-.06c.02-.02.03-.05.05-.07.03-.06.05-.13.05-.2,0-.04,0-.09-.01-.13,0,0,0-.02,0-.03-.02-.08-.07-.16-.13-.22l-1.24-1.26c-.19-.2-.51-.2-.71,0Z" fill="url(#linear-gradient2)"/>
      <path d="M4.43,9.86c.2-.19.2-.51,0-.71l-.41-.41h2.63c.28,0,.5-.22.5-.5s-.22-.5-.5-.5h-2.63l.41-.41c.19-.2.19-.51,0-.71-.2-.19-.51-.19-.71,0l-1.23,1.25c-.1.09-.15.22-.15.36s.06.27.15.36l1.24,1.26c.19.2.51.2.71,0Z" fill="url(#linear-gradient3)"/>
    </g>
  </g>
</svg>