<?xml version="1.0" encoding="UTF-8"?>
<svg id="Layer_1" xmlns="http://www.w3.org/2000/svg" version="1.1" xmlns:xlink="http://www.w3.org/1999/xlink" viewBox="0 0 10 10">
  <!-- Generator: Adobe Illustrator 29.5.1, SVG Export Plug-In . SVG Version: 2.1.0 Build 141)  -->
  <defs>
    <clipPath id="clippath">
      <rect width="10" height="10" fill="none"/>
    </clipPath>
    <linearGradient id="linear-gradient" x1="1.18" y1="9.93" x2="8.09" y2="4.05" gradientTransform="translate(0 12.4) scale(1 -1)" gradientUnits="userSpaceOnUse">
      <stop offset="0" stop-color="#0195ff"/>
      <stop offset=".99" stop-color="#1147e9"/>
    </linearGradient>
    <linearGradient id="linear-gradient1" x1="4.17" y1="8.02" x2="6.31" y2="5.14" gradientTransform="translate(0 12.4) scale(1 -1)" gradientUnits="userSpaceOnUse">
      <stop offset="0" stop-color="#1348ff"/>
      <stop offset="1" stop-color="#06238d"/>
    </linearGradient>
  </defs>
  <g clip-path="url(#clippath)">
    <g>
      <path d="M2.97.81c.18-.19.18-.49,0-.67-.18-.19-.48-.19-.67,0L.88,1.57c-.18.19-.18.49,0,.67l1.42,1.43c.18.19.48.19.67,0,.18-.19.18-.49,0-.67l-.61-.62h2.64c1.83,0,3.31,1.49,3.31,3.33s-1.48,3.33-3.31,3.33-3.31-1.49-3.31-3.33c0-.26-.21-.48-.47-.48s-.47.21-.47.48c0,2.37,1.9,4.29,4.25,4.29s4.25-1.92,4.25-4.29S7.34,1.43,4.99,1.43h-2.64l.61-.62Z" fill="url(#linear-gradient)"/>
      <path d="M6.6,4.42c-.14,0-.27.06-.38.17l-1.76,1.76-.7-.7c-.1-.11-.22-.17-.36-.17s-.27.06-.38.17c-.11.11-.17.24-.17.38s.06.27.17.38l1.06,1.06c.1.1.23.15.38.15s.28-.05.38-.15l2.14-2.14c.1-.11.15-.24.15-.38s-.05-.26-.15-.36c-.11-.11-.24-.17-.38-.17Z" fill="url(#linear-gradient1)"/>
    </g>
  </g>
</svg>