<?xml version="1.0" encoding="UTF-8"?>
<svg id="Layer_1" xmlns="http://www.w3.org/2000/svg" version="1.1" xmlns:xlink="http://www.w3.org/1999/xlink" viewBox="0 0 10 10">
  <!-- Generator: Adobe Illustrator 29.5.1, SVG Export Plug-In . SVG Version: 2.1.0 Build 141)  -->
  <defs>
    <clipPath id="clippath">
      <rect width="10" height="10" fill="none"/>
    </clipPath>
    <linearGradient id="linear-gradient" x1="3.41" y1="11.66" x2="5.76" y2="6.43" gradientTransform="translate(0 12) scale(1 -1)" gradientUnits="userSpaceOnUse">
      <stop offset="0" stop-color="#0195ff"/>
      <stop offset=".99" stop-color="#1147e9"/>
    </linearGradient>
    <linearGradient id="linear-gradient1" x1="4.23" y1="6.6" x2="5.83" y2="3.07" gradientTransform="translate(0 12) scale(1 -1)" gradientUnits="userSpaceOnUse">
      <stop offset="0" stop-color="#1348ff"/>
      <stop offset="1" stop-color="#06238d"/>
    </linearGradient>
  </defs>
  <g clip-path="url(#clippath)">
    <g>
      <path d="M9.47,3.49c.22-.08.45.03.54.24.08.21-.05.67-.28.75l-.06.02c-.87.33-1.79.46-2.71.46l-3.9.04c-.92,0-1.84-.17-2.71-.49l-.06-.02c-.21-.08-.3-.54-.22-.75.08-.21.33-.33.54-.24l.06.02c.38.15.77.25,1.16.33l.55-2.01c.22-.78.92-1.32,1.73-1.32h1.87c.81,0,1.52.55,1.73,1.32l.55,2.01c.4-.07.78-.19,1.16-.33l.06-.02Z" fill="url(#linear-gradient)"/>
      <path d="M1.7,7.18c0-.84.68-1.52,1.52-1.52.61,0,1.14.36,1.38.88.29-.06.58-.06.87,0,.25-.52.77-.88,1.38-.88.84,0,1.52.68,1.51,1.52,0,.84-.68,1.52-1.52,1.52-.71,0-1.31-.5-1.48-1.15-.21-.06-.44-.06-.66,0-.17.67-.77,1.15-1.48,1.15-.84,0-1.52-.68-1.52-1.52ZM2.73,7.19c0-.28.23-.51.51-.51s.51.23.51.51-.22.51-.51.51-.51-.23-.51-.51ZM6.85,6.69c-.28,0-.51.22-.51.51s.22.51.51.51.51-.23.51-.51-.22-.51-.51-.51Z" fill="url(#linear-gradient1)" fill-rule="evenodd"/>
    </g>
  </g>
</svg>