<?xml version="1.0" encoding="UTF-8"?>
<svg id="Layer_1" xmlns="http://www.w3.org/2000/svg" version="1.1" xmlns:xlink="http://www.w3.org/1999/xlink" viewBox="0 0 10 10">
  <!-- Generator: Adobe Illustrator 29.5.1, SVG Export Plug-In . SVG Version: 2.1.0 Build 141)  -->
  <defs>
    <clipPath id="clippath">
      <rect width="10" height="10" fill="none"/>
    </clipPath>
    <linearGradient id="linear-gradient" x1="2.09" y1="10.97" x2="6.91" y2="4.35" gradientTransform="translate(0 11.63) scale(1 -1)" gradientUnits="userSpaceOnUse">
      <stop offset="0" stop-color="#0195ff"/>
      <stop offset=".99" stop-color="#1147e9"/>
    </linearGradient>
    <linearGradient id="linear-gradient1" x1="5.26" y1="6.51" x2="8.81" y2="2.95" gradientTransform="translate(0 11.63) scale(1 -1)" gradientUnits="userSpaceOnUse">
      <stop offset="0" stop-color="#1348ff"/>
      <stop offset="1" stop-color="#06238d"/>
    </linearGradient>
  </defs>
  <g clip-path="url(#clippath)">
    <g>
      <path d="M4.94,0c1.26,0,2.2.71,2.71,1.76,1.27.12,2.32,1.26,2.32,2.73,0,.26-.03.51-.09.74-.57-.97-1.63-1.62-2.84-1.62-1.82,0-3.29,1.47-3.29,3.29,0,.11,0,.21.02.32h-1.4c-.71,0-1.31-.22-1.73-.66C.21,6.13.03,5.55.03,4.93c0-.67.24-1.3.72-1.74.35-.32.8-.51,1.31-.54C2.24,1.29,3.36,0,4.94,0Z" fill="url(#linear-gradient)"/>
      <path d="M9.58,7.22c-.14,1.17-1.07,2.09-2.23,2.22l-.41-.57.32-.43c.64-.09,1.15-.56,1.3-1.18l.47.35.15-.11.41-.29ZM5.51,7.11c.08.63.54,1.15,1.15,1.3l-.34.46.11.15.3.43c-1.17-.15-2.1-1.09-2.22-2.27l.56-.39.44.33ZM7.38,4.39c1.15.15,2.06,1.07,2.2,2.22l-.55.39-.46-.34c-.1-.61-.56-1.1-1.15-1.24l.24-.33.11-.15-.11-.15-.29-.41ZM7.16,4.93l-.33.45c-.61.09-1.11.54-1.27,1.13l-.33-.25-.15-.11-.15.11-.4.28c.16-1.14,1.08-2.04,2.24-2.17l.39.55Z" fill="url(#linear-gradient1)"/>
    </g>
  </g>
</svg>