<?xml version="1.0" encoding="UTF-8"?>
<svg id="Layer_1" xmlns="http://www.w3.org/2000/svg" version="1.1" xmlns:xlink="http://www.w3.org/1999/xlink" viewBox="0 0 10 9.96">
  <!-- Generator: Adobe Illustrator 29.5.1, SVG Export Plug-In . SVG Version: 2.1.0 Build 141)  -->
  <defs>
    <linearGradient id="linear-gradient" x1="-.74" y1="8.24" x2="6.23" y2="1.25" gradientTransform="translate(0 11.96) scale(1 -1)" gradientUnits="userSpaceOnUse">
      <stop offset="0" stop-color="#0195ff"/>
      <stop offset=".99" stop-color="#1147e9"/>
    </linearGradient>
    <linearGradient id="linear-gradient1" x1="4.7" y1="13.66" x2="11.67" y2="6.66" gradientTransform="translate(0 11.96) scale(1 -1)" gradientUnits="userSpaceOnUse">
      <stop offset="0" stop-color="#0195ff"/>
      <stop offset=".99" stop-color="#1147e9"/>
    </linearGradient>
    <linearGradient id="linear-gradient2" x1="1.46" y1="10.44" x2="8.44" y2="3.44" gradientTransform="translate(0 11.96) scale(1 -1)" gradientUnits="userSpaceOnUse">
      <stop offset="0" stop-color="#0195ff"/>
      <stop offset=".99" stop-color="#1147e9"/>
    </linearGradient>
    <linearGradient id="linear-gradient3" x1="-.4" y1="8.58" x2="6.57" y2="1.58" gradientTransform="translate(0 11.96) scale(1 -1)" gradientUnits="userSpaceOnUse">
      <stop offset="0" stop-color="#0195ff"/>
      <stop offset=".99" stop-color="#1147e9"/>
    </linearGradient>
    <linearGradient id="linear-gradient4" x1="2.91" y1="11.88" x2="9.88" y2="4.88" gradientTransform="translate(0 11.96) scale(1 -1)" gradientUnits="userSpaceOnUse">
      <stop offset="0" stop-color="#0195ff"/>
      <stop offset=".99" stop-color="#1147e9"/>
    </linearGradient>
    <linearGradient id="linear-gradient5" x1="7.44" y1="5.54" x2="9.99" y2="3.09" gradientTransform="translate(0 11.96) scale(1 -1)" gradientUnits="userSpaceOnUse">
      <stop offset="0" stop-color="#0bf"/>
      <stop offset="1" stop-color="#008bff"/>
    </linearGradient>
    <linearGradient id="linear-gradient6" x1="6.51" y1="4.56" x2="9.06" y2="2.12" gradientTransform="translate(0 11.96) scale(1 -1)" gradientUnits="userSpaceOnUse">
      <stop offset="0" stop-color="#0bf"/>
      <stop offset="1" stop-color="#008bff"/>
    </linearGradient>
  </defs>
  <path d="M.5.55c.28,0,.5.22.5.5v7.4c0,.28.22.5.5.5h3.63c.28,0,.5.22.5.5s-.22.5-.5.5H1.5c-.83,0-1.5-.67-1.5-1.5V1.05c0-.28.22-.5.5-.5Z" fill="url(#linear-gradient)" fill-rule="evenodd"/>
  <path d="M9.99.75c0-.41-.34-.75-.75-.75s-.75.34-.75.75v4.22c0,.41.34.75.75.75s.75-.34.75-.75V.75Z" fill="url(#linear-gradient1)"/>
  <path d="M5.67,2.72c0-.41-.34-.75-.75-.75s-.75.34-.75.75v4.53c0,.41.34.75.75.75s.75-.34.75-.75V2.72Z" fill="url(#linear-gradient2)"/>
  <path d="M3.5,5.85c0-.41-.34-.75-.75-.75s-.75.34-.75.75v1.41c0,.41.34.75.75.75s.75-.34.75-.75v-1.41Z" fill="url(#linear-gradient3)"/>
  <path d="M7.08,2.81c.41,0,.75.34.75.75v1.41c0,.41-.34.75-.75.75s-.75-.34-.75-.75v-1.41c0-.41.34-.75.75-.75Z" fill="url(#linear-gradient4)"/>
  <path d="M8.77,7.76c-.07-.07-.1-.16-.1-.25s.03-.18.1-.25c.01-.01.03-.03.04-.04-.05-.03-.1-.06-.15-.09-.15-.08-.31-.11-.48-.11-.23,0-.43.06-.6.17-.18.11-.31.26-.4.46-.03.07-.08.13-.14.17h0c-.05.03-.11.04-.17.04-.02,0-.05,0-.08,0-.02,0-.05-.01-.07-.02-.06-.02-.11-.06-.15-.12h0s0-.03,0-.03c-.02-.05-.03-.11-.03-.16,0-.05,0-.09.02-.13h0s0-.02,0-.02c.15-.32.37-.58.66-.76.3-.19.62-.29.98-.29.29,0,.56.07.81.2.12.06.24.14.34.22.02-.04.04-.07.07-.1.07-.07.16-.11.25-.11s.18.04.25.11c.07.07.11.15.11.25v.63c0,.1-.04.19-.11.25-.07.07-.15.1-.24.1h-.63c-.09,0-.18-.03-.24-.09h0s0,0,0,0Z" fill="url(#linear-gradient5)"/>
  <path d="M7.74,8.51c.07.07.1.16.1.25s-.03.18-.1.25c-.01.01-.03.03-.04.04.05.03.1.06.15.09.15.08.31.11.48.11.23,0,.43-.06.6-.17.18-.11.31-.26.4-.46.03-.07.08-.13.14-.17h0c.05-.03.11-.04.17-.04.02,0,.05,0,.08,0,.02,0,.05.01.07.02.06.02.11.06.15.12h0s0,.03,0,.03c.02.05.03.11.03.16,0,.05,0,.09-.02.13h0s0,.02,0,.02c-.15.32-.37.58-.66.76-.3.19-.62.29-.98.29-.29,0-.56-.07-.81-.2-.12-.06-.24-.14-.34-.22-.02.04-.04.07-.07.1-.07.07-.16.11-.25.11s-.18-.04-.25-.11c-.07-.07-.11-.15-.11-.25v-.63c0-.1.04-.19.11-.25.07-.07.15-.1.24-.1h.63c.09,0,.18.03.24.09h0s0,0,0,0Z" fill="url(#linear-gradient6)"/>
</svg>