<?xml version="1.0" encoding="UTF-8"?>
<svg id="Layer_1" xmlns="http://www.w3.org/2000/svg" version="1.1" xmlns:xlink="http://www.w3.org/1999/xlink" viewBox="0 0 10 10">
  <!-- Generator: Adobe Illustrator 29.5.1, SVG Export Plug-In . SVG Version: 2.1.0 Build 141)  -->
  <defs>
    <clipPath id="clippath">
      <rect width="10" height="10" fill="none"/>
    </clipPath>
    <linearGradient id="linear-gradient" x1="5.19" y1="6.87" x2="9.18" y2="2.91" gradientTransform="translate(0 12.01) scale(1 -1)" gradientUnits="userSpaceOnUse">
      <stop offset="0" stop-color="#1348ff"/>
      <stop offset="1" stop-color="#06238d"/>
    </linearGradient>
    <linearGradient id="linear-gradient1" x1="2.56" y1="9.57" x2="3.21" y2="7.6" gradientTransform="translate(0 12.01) scale(1 -1)" gradientUnits="userSpaceOnUse">
      <stop offset="0" stop-color="#0195ff"/>
      <stop offset=".99" stop-color="#1147e9"/>
    </linearGradient>
    <linearGradient id="linear-gradient2" x1="4.9" y1="10.35" x2="5.55" y2="8.37" gradientTransform="translate(0 12.01) scale(1 -1)" gradientUnits="userSpaceOnUse">
      <stop offset="0" stop-color="#0195ff"/>
      <stop offset=".99" stop-color="#1147e9"/>
    </linearGradient>
    <linearGradient id="linear-gradient3" x1="2.18" y1="7.58" x2="3.27" y2="6.49" gradientTransform="translate(0 12.01) scale(1 -1)" gradientUnits="userSpaceOnUse">
      <stop offset="0" stop-color="#0195ff"/>
      <stop offset=".99" stop-color="#1147e9"/>
    </linearGradient>
    <linearGradient id="linear-gradient4" x1="2.18" y1="5.56" x2="3.27" y2="4.47" gradientTransform="translate(0 12.01) scale(1 -1)" gradientUnits="userSpaceOnUse">
      <stop offset="0" stop-color="#0195ff"/>
      <stop offset=".99" stop-color="#1147e9"/>
    </linearGradient>
    <linearGradient id="linear-gradient5" x1=".88" y1="9.8" x2="7.74" y2="4.24" gradientTransform="translate(0 12.01) scale(1 -1)" gradientUnits="userSpaceOnUse">
      <stop offset="0" stop-color="#0195ff"/>
      <stop offset=".99" stop-color="#1147e9"/>
    </linearGradient>
  </defs>
  <g clip-path="url(#clippath)">
    <g>
      <path d="M7.74,6.48c0,.66-.53,1.19-1.19,1.19s-1.19-.53-1.19-1.19.53-1.19,1.19-1.19,1.19.53,1.19,1.19ZM7.66,8.37c-.33.19-.71.3-1.11.3-1.21,0-2.19-.98-2.19-2.19s.98-2.19,2.19-2.19,2.19.98,2.19,2.19c0,.44-.13.85-.35,1.19l1.47,1.47c.2.2.2.51,0,.71-.2.2-.51.2-.71,0l-1.49-1.49Z" fill="url(#linear-gradient)" fill-rule="evenodd"/>
      <path d="M2.73,3.73c-.43,0-.78-.36-.78-.78s.36-.78.78-.78.78.36.78.78-.36.78-.78.78Z" fill="url(#linear-gradient1)"/>
      <path d="M4.47,3.45h1.7c.28,0,.5-.22.5-.5s-.23-.5-.5-.5h-1.7c-.28,0-.5.23-.5.5s.22.5.5.5Z" fill="url(#linear-gradient2)"/>
      <path d="M2.73,5.75c-.43,0-.78-.36-.78-.78s.36-.78.78-.78.78.36.78.78-.36.78-.78.78Z" fill="url(#linear-gradient3)"/>
      <path d="M2.73,7.77c-.43,0-.78-.36-.78-.78s.36-.78.78-.78.78.36.78.78-.36.78-.78.78Z" fill="url(#linear-gradient4)"/>
      <path d="M.26,1.49C.26.66.93-.01,1.76-.01h5.11c.83,0,1.5.67,1.5,1.5v1.49c0,.28-.22.5-.5.5s-.5-.22-.5-.5v-1.49c0-.28-.22-.5-.5-.5H1.76c-.28,0-.5.22-.5.5v7c0,.28.22.5.5.5h2.65c.28,0,.5.22.5.5s-.22.5-.5.5H1.76c-.83,0-1.5-.67-1.5-1.5V1.49Z" fill="url(#linear-gradient5)" fill-rule="evenodd"/>
    </g>
  </g>
</svg>