<?xml version="1.0" encoding="UTF-8"?>
<svg id="Layer_1" xmlns="http://www.w3.org/2000/svg" version="1.1" xmlns:xlink="http://www.w3.org/1999/xlink" viewBox="0 0 10 10">
  <!-- Generator: Adobe Illustrator 29.5.1, SVG Export Plug-In . SVG Version: 2.1.0 Build 141)  -->
  <defs>
    <clipPath id="clippath">
      <rect width="10" height="10" fill="none"/>
    </clipPath>
    <linearGradient id="linear-gradient" x1=".11" y1="9.94" x2="2.82" y2="8.41" gradientTransform="translate(0 12.01) scale(1 -1)" gradientUnits="userSpaceOnUse">
      <stop offset="0" stop-color="#0bf"/>
      <stop offset="1" stop-color="#008bff"/>
    </linearGradient>
    <linearGradient id="linear-gradient1" x1="9.89" y1="9.95" x2="7.19" y2="8.41" gradientTransform="translate(0 12.01) scale(1 -1)" gradientUnits="userSpaceOnUse">
      <stop offset="0" stop-color="#1348ff"/>
      <stop offset="1" stop-color="#06238d"/>
    </linearGradient>
    <linearGradient id="linear-gradient2" x1="2.09" y1="10.5" x2="8.95" y2="4.72" gradientTransform="translate(0 12.01) scale(1 -1)" gradientUnits="userSpaceOnUse">
      <stop offset="0" stop-color="#0195ff"/>
      <stop offset=".99" stop-color="#1147e9"/>
    </linearGradient>
    <linearGradient id="linear-gradient3" x1="-.03" y1="7.99" x2="6.83" y2="2.2" gradientTransform="translate(0 12.01) scale(1 -1)" gradientUnits="userSpaceOnUse">
      <stop offset="0" stop-color="#0195ff"/>
      <stop offset=".99" stop-color="#1147e9"/>
    </linearGradient>
  </defs>
  <g clip-path="url(#clippath)">
    <path d="M2.73.94c.04.24-.11.47-.35.51-.31.06-.54.33-.54.64,0,.36.18.61.32.67.22.1.32.35.23.58-.07.17-.24.27-.41.26-.58.12-.91.58-.91,1.04,0,.24-.2.44-.44.44s-.44-.2-.44-.44c0-.69.38-1.32,1-1.67-.15-.27-.22-.59-.22-.88,0-.75.54-1.37,1.25-1.5.24-.04.47.11.51.35Z" fill="url(#linear-gradient)" fill-rule="evenodd"/>
    <path d="M7.27.94c-.04.24.11.47.35.51.31.06.54.33.54.64,0,.36-.18.61-.32.67-.22.1-.32.35-.23.58.07.17.24.27.41.26.58.12.91.58.91,1.04,0,.24.2.44.44.44s.44-.2.44-.44c0-.69-.38-1.32-1-1.67.15-.27.22-.59.22-.88,0-.75-.54-1.37-1.25-1.5-.24-.04-.47.11-.51.35Z" fill="url(#linear-gradient1)" fill-rule="evenodd"/>
    <path d="M5.02.96c-.61,0-1.1.49-1.1,1.09s.49,1.09,1.1,1.09,1.1-.49,1.1-1.09-.49-1.09-1.1-1.09ZM3,2.05C3,.94,3.9.04,5.02.04s2.02.9,2.02,2.01c0,.54-.21,1.03-.56,1.39.96.41,1.67,1.21,1.67,2.23,0,.25-.21.46-.46.46s-.46-.21-.46-.46c0-.78-.87-1.6-2.21-1.6s-2.21.82-2.21,1.6c0,.25-.21.46-.46.46s-.46-.21-.46-.46c0-1.02.71-1.82,1.67-2.23-.35-.36-.56-.85-.56-1.39Z" fill="url(#linear-gradient2)" fill-rule="evenodd"/>
    <path d="M1.82,9.12c0,.28-.23.5-.5.5-.28,0-.5-.22-.5-.5v-1.73c0-.28.23-.5.51-.5h1.73c.28,0,.5.22.5.49,0,.28-.23.5-.5.5h-.49s.29.3.29.3c.53.53,1.33.8,2.14.8.81,0,1.61-.27,2.14-.8l.29-.29h-.49c-.28,0-.5-.23-.5-.51,0-.28.22-.5.5-.5h1.73c.28,0,.5.23.5.51v1.73c0,.28-.22.5-.49.5-.28,0-.5-.23-.5-.5v-.56s-.33.33-.33.33c-.73.73-1.8,1.1-2.85,1.1-1.06,0-2.12-.36-2.86-1.1l-.33-.33v.56Z" fill="url(#linear-gradient3)" fill-rule="evenodd"/>
  </g>
</svg>