<?xml version="1.0" encoding="UTF-8"?>
<svg id="Layer_1" xmlns="http://www.w3.org/2000/svg" version="1.1" xmlns:xlink="http://www.w3.org/1999/xlink" viewBox="0 0 10 10">
  <!-- Generator: Adobe Illustrator 29.5.1, SVG Export Plug-In . SVG Version: 2.1.0 Build 141)  -->
  <defs>
    <clipPath id="clippath">
      <rect width="10" height="10" fill="none"/>
    </clipPath>
    <linearGradient id="linear-gradient" x1="2.03" y1="11.72" x2="6.52" y2="5.2" gradientTransform="translate(0 12.4) scale(1 -1)" gradientUnits="userSpaceOnUse">
      <stop offset="0" stop-color="#0195ff"/>
      <stop offset=".99" stop-color="#1147e9"/>
    </linearGradient>
    <linearGradient id="linear-gradient1" x1="1.74" y1="8.24" x2="7.02" y2="2.98" gradientTransform="translate(0 12.4) scale(1 -1)" gradientUnits="userSpaceOnUse">
      <stop offset="0" stop-color="#1348ff"/>
      <stop offset="1" stop-color="#06238d"/>
    </linearGradient>
  </defs>
  <g clip-path="url(#clippath)">
    <g>
      <path d="M5.95.41c-.52-.52-1.37-.52-1.9,0L.41,4.05c-.52.52-.52,1.37,0,1.9l.93.93c.03-.8.51-1.49,1.18-1.83-.1-.27-.15-.56-.15-.87,0-1.45,1.17-2.63,2.62-2.63s2.63,1.18,2.63,2.63c0,.31-.05.6-.15.87.68.34,1.15,1.03,1.18,1.83l.93-.93c.52-.52.52-1.37,0-1.9L5.95.41Z" fill="url(#linear-gradient)"/>
      <path d="M3.25,4.18c0,.54.25,1.03.63,1.35l-.11.2c-.09-.02-.18-.03-.28-.03-.71,0-1.28.57-1.28,1.28,0,.33.13.63.33.86l-.09.16c-.07-.01-.13-.02-.2-.02-.55,0-1,.45-1,1s.45,1,1,1,1-.45,1-1c0-.26-.1-.49-.26-.67l.07-.13c.13.05.27.07.42.07.17,0,.33-.03.47-.09l.07.12c-.18.18-.28.43-.28.7,0,.55.45,1,1,1s1-.45,1-1-.45-1-1-1c-.06,0-.11,0-.16.01l-.11-.2c.18-.22.29-.51.29-.82,0-.38-.17-.73-.44-.96l.1-.17c.18.06.37.1.57.1s.39-.03.57-.09l.1.17c-.27.23-.44.58-.44.96,0,.71.57,1.28,1.28,1.28.15,0,.29-.02.42-.07l.07.13c-.16.18-.26.41-.26.67,0,.55.45,1,1,1s1-.45,1-1-.45-1-1-1c-.07,0-.14,0-.2.02l-.09-.16c.21-.23.33-.53.33-.86,0-.71-.57-1.28-1.28-1.28-.1,0-.19.01-.28.03l-.11-.19c.39-.32.64-.81.64-1.35,0-.97-.78-1.75-1.75-1.75s-1.75.79-1.75,1.75ZM5.75,4.18c0,.17-.06.33-.15.46h0c-.13.17-.33.28-.55.29h0s-.03,0-.04,0c-.02,0-.03,0-.05,0h0c-.22-.02-.42-.13-.55-.3h0c-.09-.12-.15-.28-.15-.45,0-.42.34-.75.75-.75s.75.34.75.75ZM6.5,6.47c-.28,0-.5.22-.5.5s.22.5.5.5.5-.22.5-.5-.22-.5-.5-.5ZM2.99,6.97c0-.28.22-.5.5-.5s.5.22.5.5-.22.5-.5.5-.5-.22-.5-.5ZM7.74,8.6c-.21,0-.38.17-.38.38s.17.38.38.38.38-.17.38-.38-.17-.38-.38-.38ZM4.37,8.97c0-.21.17-.38.38-.38s.38.17.38.38-.17.38-.38.38-.38-.17-.38-.38ZM2.25,8.6c-.21,0-.38.17-.38.38s.17.38.38.38.38-.17.38-.38-.17-.38-.38-.38Z" fill="url(#linear-gradient1)" fill-rule="evenodd"/>
    </g>
  </g>
</svg>