<?xml version="1.0" encoding="UTF-8"?>
<svg id="Layer_1" xmlns="http://www.w3.org/2000/svg" version="1.1" xmlns:xlink="http://www.w3.org/1999/xlink" viewBox="0 0 10 10">
  <!-- Generator: Adobe Illustrator 29.5.1, SVG Export Plug-In . SVG Version: 2.1.0 Build 141)  -->
  <defs>
    <clipPath id="clippath">
      <rect width="10" height="10" fill="none"/>
    </clipPath>
    <linearGradient id="linear-gradient" x1="1.78" y1="11" x2="5.48" y2="5.9" gradientTransform="translate(0 12) scale(1 -1)" gradientUnits="userSpaceOnUse">
      <stop offset="0" stop-color="#0195ff"/>
      <stop offset=".99" stop-color="#1147e9"/>
    </linearGradient>
    <linearGradient id="linear-gradient1" x1="7.43" y1="7.85" x2="9.42" y2="5.65" gradientTransform="translate(0 12) scale(1 -1)" gradientUnits="userSpaceOnUse">
      <stop offset="0" stop-color="#1348ff"/>
      <stop offset="1" stop-color="#06238d"/>
    </linearGradient>
    <linearGradient id="linear-gradient2" x1="3.7" y1="5.9" x2="6.91" y2="2.68" gradientTransform="translate(0 12) scale(1 -1)" gradientUnits="userSpaceOnUse">
      <stop offset="0" stop-color="#1348ff"/>
      <stop offset="1" stop-color="#06238d"/>
    </linearGradient>
  </defs>
  <g clip-path="url(#clippath)">
    <g>
      <path d="M3.97.51c-1.22,0-2.09.99-2.23,2.03-.39.02-.74.17-1.01.42-.36.34-.55.82-.55,1.34,0,.48.14.93.47,1.26.33.34.79.51,1.34.51h.93s0,0,0,0l.18-.23h0c.15-.19.38-.32.65-.32.17,0,.33.05.47.14.02,0,.03-.02.05-.03v-.05s0-.03,0-.03c.03-.18.11-.34.25-.48.14-.14.35-.25.6-.25h.3c.22,0,.43.08.6.25.14.13.24.32.25.53.02,0,.04.02.06.03h.02s.02-.02.02-.02c.04-.02.08-.05.13-.07v-.02s0-.07,0-.07c0-.1.03-.21.11-.31.07-.1.17-.16.26-.2h.02s.03-.02.03-.02c0,0,0-.02,0-.03l-.02-.02h0c-.1-.11-.13-.24-.14-.31v-.05s0-.05,0-.05c0-.12.05-.25.15-.36l.12-.15h0c.1-.12.26-.2.44-.19.11,0,.21.04.3.11.01,0,.02-.01.03-.02v-.03s0-.02,0-.02c0-.01,0-.03,0-.04-.09-1.03-.86-1.81-1.78-1.9-.39-.81-1.12-1.35-2.09-1.35Z" fill="url(#linear-gradient)"/>
      <path d="M9.82,5.41c.07.03.1.09.09.16v.02s-.06.19-.06.19c-.02.08-.07.12-.16.11h-.02s-.3-.06-.3-.06c-.06.12-.16.22-.29.31l.1.32s0,.03,0,.05c0,.07-.03.12-.09.15l-.18.08s-.04.02-.06.02c-.06,0-.1-.03-.13-.09l-.16-.32s-.07,0-.1.01h-.1s-.09,0-.09,0c-.02,0-.05-.02-.08-.02l-.2.31s-.08.07-.13.07c-.03,0-.05,0-.06-.02l-.17-.09c-.05-.03-.08-.07-.08-.13,0-.02,0-.04.01-.06l.13-.31c-.11-.09-.19-.2-.26-.33l-.32.03h-.02c-.08,0-.13-.05-.14-.13l-.04-.2v-.02c0-.07.04-.13.11-.15l.27-.07v-.04c0-.16.04-.3.11-.43l-.2-.2s-.03-.05-.04-.11c0-.04.02-.08.04-.1l.13-.15s.07-.05.11-.05c.03,0,.06.01.08.03l.21.16c.14-.1.28-.17.44-.2l.03-.27s.03-.07.05-.09c.03-.03.07-.04.11-.04h.2s.08.03.1.06c.03.03.04.06.04.1v.26c.16.05.31.12.44.23l.22-.14s.06-.03.09-.02c.05,0,.09.02.11.06l.11.16s.03.06.03.1c0,.04-.02.07-.05.1l-.2.18c.03.07.05.14.05.22.01.08.02.16.02.24h0s.27.11.27.11ZM7.95,5.68c-.12-.13-.17-.29-.16-.47,0-.18.08-.33.21-.45.13-.12.29-.17.47-.16.18,0,.33.08.45.21.12.13.17.29.16.47,0,.18-.08.33-.21.45-.13.12-.29.17-.47.16-.18,0-.33-.08-.45-.21Z" fill="url(#linear-gradient1)" fill-rule="evenodd"/>
      <path d="M7.45,7.85c.1.05.16.13.16.24v.03l-.07.3c-.03.12-.1.19-.23.19h-.03l-.46-.07c-.09.18-.22.35-.41.5l.17.49s.01.04.01.07c0,.11-.04.19-.13.23l-.27.14s-.07.03-.09.03c-.09,0-.15-.04-.2-.13l-.27-.47s-.1.02-.16.03h-.3s-.08-.02-.13-.03l-.29.49c-.05.08-.11.11-.19.11-.05,0-.08,0-.1-.03l-.27-.13c-.09-.04-.13-.1-.13-.2,0-.04,0-.07.01-.09l.17-.49c-.17-.12-.31-.29-.41-.49l-.49.07h-.03c-.12,0-.2-.06-.23-.19l-.07-.3v-.03c0-.11.05-.2.16-.24l.41-.13v-.06c0-.24.04-.46.13-.66l-.31-.29s-.05-.08-.07-.16c0-.07.02-.12.06-.16l.19-.24c.05-.06.1-.09.17-.09.05,0,.09.01.13.04l.33.23c.2-.16.42-.28.66-.34l.03-.41c0-.06.03-.1.07-.14.05-.05.1-.07.16-.07h.3c.07,0,.12.02.16.07.05.04.07.09.07.14l.03.4c.24.06.47.16.69.31l.33-.23s.09-.04.13-.04c.08,0,.13.03.17.09l.19.24s.06.09.06.16c0,.06-.02.11-.07.16l-.29.29c.05.1.08.21.1.33.03.11.04.24.04.37h0s.41.14.41.14ZM4.62,8.41c-.19-.19-.29-.42-.29-.7s.1-.51.29-.7c.19-.19.42-.29.7-.29s.51.1.7.29c.19.19.29.42.29.7s-.1.51-.29.7c-.19.19-.42.29-.7.29s-.51-.1-.7-.29Z" fill="url(#linear-gradient2)" fill-rule="evenodd"/>
    </g>
  </g>
</svg>