<?xml version="1.0" encoding="UTF-8"?>
<svg id="Layer_1" xmlns="http://www.w3.org/2000/svg" version="1.1" xmlns:xlink="http://www.w3.org/1999/xlink" viewBox="0 0 10 10">
  <!-- Generator: Adobe Illustrator 29.5.1, SVG Export Plug-In . SVG Version: 2.1.0 Build 141)  -->
  <defs>
    <clipPath id="clippath">
      <rect width="10" height="10" fill="none"/>
    </clipPath>
    <linearGradient id="linear-gradient" x1="3.48" y1="8.25" x2="6.49" y2="6.52" gradientTransform="translate(0 12.4) scale(1 -1)" gradientUnits="userSpaceOnUse">
      <stop offset="0" stop-color="#1348ff"/>
      <stop offset="1" stop-color="#06238d"/>
    </linearGradient>
    <linearGradient id="linear-gradient1" x1="4.68" y1="13.6" x2="11.18" y2="6.64" gradientTransform="translate(0 12.4) scale(1 -1)" gradientUnits="userSpaceOnUse">
      <stop offset="0" stop-color="#0195ff"/>
      <stop offset=".99" stop-color="#1147e9"/>
    </linearGradient>
    <linearGradient id="linear-gradient2" x1="1.65" y1="10.78" x2="8.15" y2="3.81" gradientTransform="translate(0 12.4) scale(1 -1)" gradientUnits="userSpaceOnUse">
      <stop offset="0" stop-color="#0195ff"/>
      <stop offset=".99" stop-color="#1147e9"/>
    </linearGradient>
    <linearGradient id="linear-gradient3" x1="-1.15" y1="8.17" x2="5.35" y2="1.2" gradientTransform="translate(0 12.4) scale(1 -1)" gradientUnits="userSpaceOnUse">
      <stop offset="0" stop-color="#0195ff"/>
      <stop offset=".99" stop-color="#1147e9"/>
    </linearGradient>
    <linearGradient id="linear-gradient4" x1="1.86" y1="10.97" x2="8.36" y2="4.01" gradientTransform="translate(0 12.4) scale(1 -1)" gradientUnits="userSpaceOnUse">
      <stop offset="0" stop-color="#0195ff"/>
      <stop offset=".99" stop-color="#1147e9"/>
    </linearGradient>
  </defs>
  <g clip-path="url(#clippath)">
    <g>
      <path d="M4.76,4.18c-.16,0-.23.07-.23.2s.08.2.23.2h.47c.34,0,.62.1.84.31.23.19.35.44.35.73,0,.27-.08.51-.25.7-.17.18-.4.3-.68.34v.41c0,.28-.16.43-.49.43-.14,0-.26-.04-.35-.12-.08-.08-.12-.18-.12-.31v-.41h-.47c-.14,0-.26-.03-.35-.1-.09-.08-.14-.18-.14-.31,0-.28.16-.43.49-.43h1.17c.17,0,.25-.07.25-.2s-.08-.2-.25-.2h-.47c-.34,0-.62-.1-.86-.29-.22-.2-.33-.46-.33-.75,0-.26.08-.49.25-.68.18-.19.42-.31.7-.36v-.41c0-.13.04-.22.12-.29.09-.08.21-.12.35-.12s.26.04.35.12c.09.07.14.16.14.29v.41h.47c.31,0,.47.14.47.43,0,.13-.05.23-.14.31-.08.07-.19.1-.33.1h-1.19Z" fill="url(#linear-gradient)"/>
      <path d="M8.09,4.36c.12.09.23.14.35.14s.23-.05.35-.14l1.05-1.07c.1-.1.16-.22.16-.35,0-.14-.05-.27-.16-.37-.09-.09-.21-.14-.35-.14-.13,0-.25.05-.35.16l-.2.21v-.7c0-.49-.17-.91-.51-1.25-.35-.34-.77-.51-1.25-.51h-1.21c-.14,0-.26.05-.35.14-.09.1-.14.23-.14.37s.05.26.14.35c.09.09.21.14.35.14h1.21c.21,0,.38.07.53.21s.21.33.21.55v.7l-.2-.21c-.1-.1-.22-.16-.35-.16-.14,0-.27.05-.37.16-.09.12-.14.23-.14.33,0,.16.05.28.16.37l1.05,1.07Z" fill="url(#linear-gradient1)"/>
      <path d="M8.44,5.51c.14,0,.26.05.35.16.1.09.16.21.16.35v2.49c0,.31-.11.58-.33.8-.22.22-.49.33-.8.33h-1.8c-.14,0-.27-.05-.37-.14-.09-.1-.14-.23-.14-.37s.05-.26.14-.35c.1-.09.23-.14.37-.14h1.8c.09,0,.14-.05.14-.14v-2.49c0-.14.05-.26.14-.35.09-.1.21-.16.35-.16Z" fill="url(#linear-gradient2)"/>
      <path d="M1.59,5.5c.12,0,.23.05.35.14l1.05,1.07c.1.09.16.21.16.37,0,.1-.05.21-.14.33-.1.1-.23.16-.37.16-.13,0-.25-.05-.35-.16l-.2-.21v.7c0,.22.07.4.21.55.14.14.32.21.53.21h1.17c.14,0,.26.05.35.14.09.09.14.21.14.35s-.05.27-.14.37c-.09.09-.21.14-.35.14h-1.17c-.48,0-.9-.17-1.25-.51-.34-.34-.51-.76-.51-1.25v-.7l-.2.21c-.1.1-.22.16-.35.16-.14,0-.26-.05-.35-.14-.1-.1-.16-.23-.16-.37,0-.13.05-.25.16-.35l1.05-1.07c.12-.09.23-.14.35-.14Z" fill="url(#linear-gradient3)"/>
      <path d="M3.75,1.35c-.06,0-.12.03-.15.07-.07.06-.08.16-.08.25v.49c0,.21-.08.39-.23.55-.15.15-.34.23-.56.23h-.38c-.07,0-.14.03-.2.08-.05.05-.07.11-.07.18v.79c0,.28-.22.5-.5.5s-.5-.22-.5-.5v-1.26c0-.11.04-.2.11-.27L3.01.47c.08-.08.17-.12.27-.12h.7c.28,0,.5.22.5.5s-.22.5-.5.5h-.24Z" fill="url(#linear-gradient4)"/>
    </g>
  </g>
</svg>