<?xml version="1.0" encoding="UTF-8"?>
<svg id="Layer_1" xmlns="http://www.w3.org/2000/svg" version="1.1" xmlns:xlink="http://www.w3.org/1999/xlink" viewBox="0 0 10 10">
  <!-- Generator: Adobe Illustrator 29.5.1, SVG Export Plug-In . SVG Version: 2.1.0 Build 141)  -->
  <defs>
    <clipPath id="clippath">
      <rect width="10" height="10" fill="none"/>
    </clipPath>
    <linearGradient id="linear-gradient" x1=".65" y1="9.88" x2="7.18" y2="4.52" gradientTransform="translate(0 12.4) scale(1 -1)" gradientUnits="userSpaceOnUse">
      <stop offset="0" stop-color="#0195ff"/>
      <stop offset=".99" stop-color="#1147e9"/>
    </linearGradient>
    <linearGradient id="linear-gradient1" x1="4.19" y1="8.68" x2="9.36" y2="3.97" gradientTransform="translate(0 12.4) scale(1 -1)" gradientUnits="userSpaceOnUse">
      <stop offset="0" stop-color="#1348ff"/>
      <stop offset="1" stop-color="#06238d"/>
    </linearGradient>
  </defs>
  <g clip-path="url(#clippath)">
    <g>
      <path d="M.46,1.39C.21,1.63,0,1.97,0,2.4c0,0,.01,5.49.01,5.49H.01c0,.96.75,1.47,1.42,1.73.55.21,1.39.32,2.14.36.35.02.63-.27.63-.62v-.05c0-.32-.26-.57-.58-.58-.68-.02-1.32-.12-1.78-.3-.56-.22-.63-.43-.63-.54v-.78c.07.02.15.05.24.08.15.06.31.11.46.14.06.01.19.03.32.05.22.03.42-.15.42-.37v-.06s0-.03,0-.05c0-.01,0-.02,0-.04-.03-.15-.16-.27-.32-.3-.09-.02-.16-.03-.19-.04-.38-.08-.7-.21-.93-.31v-.95c.06.02.13.04.2.07.16.06.34.12.5.15.19.04.52.09.82.13.09.01.17,0,.24-.05.04-.06.09-.11.14-.17h0s0,0,0,0c.01-.03.02-.07.03-.11v-.04c.03-.21-.12-.39-.32-.42-.23-.03-.46-.07-.58-.09-.38-.08-.8-.22-1.02-.32v-1c.06.02.12.05.17.07.68.25,1.57.37,2.52.37.11,0,.21,0,.31,0,.17-.58.66-1.05,1.26-1.18.06-.09.14-.18.22-.26.58-.55,1.47-.61,2.1-.16-.04-.36-.23-.65-.45-.86-.25-.24-.57-.41-.92-.53-.69-.25-1.59-.38-2.54-.38s-1.84.12-2.53.38c-.34.13-.66.3-.91.53Z" fill="url(#linear-gradient)"/>
      <path d="M8.87,3.95c-.05-.15-.14-.29-.26-.4-.21-.2-.5-.3-.77-.29-.05-.15-.14-.29-.26-.4-.4-.38-1.04-.38-1.44,0-.12.11-.21.25-.26.4-.58-.03-1.1.46-1.1,1.05v1.34c-.15-.07-.31-.11-.48-.11-.28,0-.54.11-.74.31-.2.2-.31.46-.31.74s.11.54.31.74h0c.54.53.99,1.14,1.53,1.65.57.55,1.26,1.02,2.1,1.02.89,0,1.6-.39,2.08-1.01.47-.62.71-1.45.71-2.34v-1.65c0-.59-.51-1.08-1.1-1.05ZM7.18,9.2c-.43,0-.83-.18-1.15-.47l-1.92-1.97s-.07-.11-.07-.18c0-.07.03-.13.08-.18.05-.05.11-.07.18-.08.07,0,.13.02.18.07l.31.31c.29.29.77.08.77-.32,0-.68,0-1.39,0-2.08,0-.07.03-.13.08-.18.05-.05.11-.08.18-.08s.13.03.18.08c.05.05.08.11.08.18v1.64c0,.14.12.26.26.26s.26-.12.26-.26v-2.33c0-.07.03-.13.08-.18.05-.05.11-.08.18-.08s.13.03.18.08c.05.05.08.11.08.18v2.33c0,.14.12.26.26.26s.26-.12.26-.26v-1.64c0-.07.03-.13.08-.18.05-.05.11-.08.18-.08s.13.03.18.08c.05.05.08.11.08.18v1.64c0,.14.12.26.26.26s.26-.12.26-.26v-.95c0-.06.02-.12.06-.16.04-.05.09-.08.15-.09.08-.01.16,0,.22.06.06.05.07.14.07.22,0,.11,0,.23,0,.35.01,1.6.03,3.71-1.98,3.84Z" fill="url(#linear-gradient1)" fill-rule="evenodd"/>
    </g>
  </g>
</svg>