<?xml version="1.0" encoding="UTF-8"?>
<svg id="Layer_1" xmlns="http://www.w3.org/2000/svg" version="1.1" xmlns:xlink="http://www.w3.org/1999/xlink" viewBox="0 0 10 10">
  <!-- Generator: Adobe Illustrator 29.5.1, SVG Export Plug-In . SVG Version: 2.1.0 Build 141)  -->
  <defs>
    <clipPath id="clippath">
      <rect width="10" height="10" fill="none"/>
    </clipPath>
    <linearGradient id="linear-gradient" x1="2.97" y1="10.74" x2="8.21" y2="4.75" gradientTransform="translate(0 11.6) scale(1 -1)" gradientUnits="userSpaceOnUse">
      <stop offset="0" stop-color="#0195ff"/>
      <stop offset=".99" stop-color="#1147e9"/>
    </linearGradient>
    <linearGradient id="linear-gradient1" x1=".81" y1="6.19" x2="4.55" y2="2.44" gradientTransform="translate(0 11.6) scale(1 -1)" gradientUnits="userSpaceOnUse">
      <stop offset="0" stop-color="#1348ff"/>
      <stop offset="1" stop-color="#06238d"/>
    </linearGradient>
  </defs>
  <g clip-path="url(#clippath)">
    <g>
      <path d="M1.36,4.31c.06-.11.13-.22.23-.31.21-.21.51-.38.89-.38h.35c.32,0,.64.12.89.38.14.13.24.29.31.47.12-.05.27-.08.44-.08.37,0,.75.16,1.01.51l.18.23c.23.26.3.57.3.82s-.08.49-.2.67c.15.09.3.22.41.4.11.17.17.36.19.53h3.21c.24,0,.43-.19.43-.43v-3.35c0-.13-.06-.25-.16-.33l-2.16-1.73c-.13-.11-.31-.12-.46-.05-.15.07-.24.22-.24.39v.83l-1.46-1.17c-.13-.11-.31-.12-.46-.05-.15.07-.24.22-.24.39v1.04h-1.04V.43C3.78.19,3.58,0,3.34,0h-1.55C1.56,0,1.36.19,1.36.43v3.88ZM6.44,5.29c0,.3.24.54.54.54s.54-.24.54-.54-.24-.54-.54-.54-.54.24-.54.54ZM8.6,5.83c-.3,0-.54-.24-.54-.54s.24-.54.54-.54.54.24.54.54-.24.54-.54.54Z" fill="url(#linear-gradient)" fill-rule="evenodd"/>
      <path d="M5.19,7.46c.12.06.18.15.18.28v.03l-.08.35c-.03.14-.12.22-.27.22h-.03l-.53-.08c-.1.21-.26.41-.48.58l.2.57s.02.05.02.08c0,.13-.05.22-.15.27l-.32.17s-.08.03-.1.03c-.1,0-.18-.05-.23-.15l-.32-.55c-.06.01-.12.02-.18.03h-.35s-.09-.02-.15-.03l-.33.57c-.06.09-.13.13-.22.13-.06,0-.09-.01-.12-.03l-.32-.15c-.1-.04-.15-.12-.15-.23,0-.04,0-.08.02-.1l.2-.57c-.2-.14-.36-.33-.48-.57l-.57.08h-.03c-.14,0-.23-.07-.27-.22l-.08-.35v-.03c0-.13.06-.23.18-.28l.48-.15v-.07c0-.28.05-.53.15-.77l-.37-.33s-.06-.09-.08-.18c0-.08.02-.14.07-.18l.22-.28c.06-.07.12-.1.2-.1.06,0,.11.02.15.05l.38.27c.23-.19.49-.32.77-.4l.03-.48c.01-.07.04-.12.08-.17.06-.06.12-.08.18-.08h.35c.08,0,.14.03.18.08.06.04.08.1.08.17l.03.47c.28.07.55.19.8.37l.38-.27c.06-.03.11-.05.15-.05.09,0,.16.03.2.1l.22.28s.07.11.07.18c0,.07-.03.13-.08.18l-.33.33c.06.12.09.25.12.38.03.13.05.28.05.43v.02l.48.15ZM1.88,8.11c-.22-.22-.33-.5-.33-.82s.11-.6.33-.82.5-.33.82-.33.6.11.82.33.33.5.33.82-.11.6-.33.82c-.22.22-.5.33-.82.33s-.6-.11-.82-.33Z" fill="url(#linear-gradient1)" fill-rule="evenodd"/>
    </g>
  </g>
</svg>