<?xml version="1.0" encoding="UTF-8"?>
<svg id="Layer_1" xmlns="http://www.w3.org/2000/svg" version="1.1" xmlns:xlink="http://www.w3.org/1999/xlink" viewBox="0 0 10 10.07">
  <!-- Generator: Adobe Illustrator 29.5.1, SVG Export Plug-In . SVG Version: 2.1.0 Build 141)  -->
  <defs>
    <clipPath id="clippath">
      <rect width="10" height="10" fill="none"/>
    </clipPath>
    <linearGradient id="linear-gradient" x1="1.53" y1="10.34" x2="8.44" y2="4.26" gradientTransform="translate(0 12.4) scale(1 -1)" gradientUnits="userSpaceOnUse">
      <stop offset="0" stop-color="#0195ff"/>
      <stop offset=".99" stop-color="#1147e9"/>
    </linearGradient>
    <linearGradient id="linear-gradient1" x1="3.25" y1="9.14" x2="6.71" y2="5.67" gradientTransform="translate(0 12.4) scale(1 -1)" gradientUnits="userSpaceOnUse">
      <stop offset="0" stop-color="#1348ff"/>
      <stop offset="1" stop-color="#06238d"/>
    </linearGradient>
  </defs>
  <g clip-path="url(#clippath)">
    <g>
      <path d="M4.77.35c.14-.24.45-.31.69-.17l3.17,1.9c.46.28.75.78.75,1.32v3.45c0,.54-.28,1.04-.75,1.32l-2.84,1.69c-.48.29-1.09.29-1.57,0l-2.84-1.69c-.46-.28-.75-.78-.75-1.32v-3.45c0-.54.28-1.04.75-1.32l1.82-1.09c.24-.14.54-.06.69.17.14.24.06.54-.17.69l-1.82,1.09c-.16.1-.26.27-.26.46v3.45c0,.19.1.36.26.46l2.84,1.69c.17.1.38.1.55,0l2.84-1.69c.16-.1.26-.27.26-.46v-3.45c0-.19-.1-.36-.26-.46l-3.17-1.9c-.24-.14-.31-.45-.17-.69Z" fill="url(#linear-gradient)" fill-rule="evenodd"/>
      <path d="M7.3,5.15c.11.05.17.14.17.26v.03l-.08.32c-.03.13-.11.2-.25.2h-.03l-.49-.08c-.09.2-.24.38-.45.54l.19.53s.02.05.02.08c0,.12-.05.21-.14.25l-.29.15s-.07.03-.09.03c-.09,0-.16-.05-.22-.14l-.29-.51c-.05.01-.11.02-.17.03h-.32s-.09-.02-.14-.03l-.31.53c-.05.08-.12.12-.2.12-.05,0-.09-.01-.11-.03l-.29-.14c-.09-.04-.14-.11-.14-.22,0-.04,0-.07.02-.09l.19-.53c-.19-.13-.33-.31-.45-.53l-.53.08h-.03c-.13,0-.22-.07-.25-.2l-.08-.32v-.03c0-.12.06-.21.17-.26l.45-.14v-.06c0-.26.05-.49.14-.71l-.34-.31s-.06-.09-.08-.17c0-.07.02-.13.06-.17l.2-.26c.05-.06.11-.09.19-.09.05,0,.1.02.14.05l.36.25c.22-.18.45-.3.71-.37l.03-.45c.01-.06.04-.11.08-.15.05-.05.11-.08.17-.08h.32c.07,0,.13.03.17.08.05.04.08.09.08.15l.03.43c.26.06.5.18.74.34l.36-.25c.05-.03.1-.05.14-.05.08,0,.14.03.19.09l.2.26s.06.1.06.17c0,.06-.03.12-.08.17l-.31.31c.05.11.09.23.11.36.03.12.05.26.05.4v.02l.45.14ZM4.24,5.76c-.21-.21-.31-.46-.31-.76s.1-.55.31-.76c.21-.21.46-.31.76-.31s.55.1.76.31c.21.21.31.46.31.76s-.1.55-.31.76c-.21.21-.46.31-.76.31s-.55-.1-.76-.31Z" fill="url(#linear-gradient1)" fill-rule="evenodd"/>
    </g>
  </g>
</svg>