<svg xmlns="http://www.w3.org/2000/svg" xmlns:xlink="http://www.w3.org/1999/xlink" version="1.1" data-diagram-type="SEQUENCE" style="width:346px;height:193px;" width="346.875px" height="193.75px" viewBox="0 0 346 193" zoomAndPan="magnify" preserveAspectRatio="none" contentStyleType="text/css"><defs/><g font-family="sans-serif" lengthAdjust="spacing"><g><title>Bob</title><rect x="86.558" y="72.884" width="8.333" height="47.884" fill="#000" fill-opacity="0"/><line x1="90.204" y1="72.884" x2="90.204" y2="120.768" style="stroke:#F3969A;stroke-width:1.042;stroke-dasharray:5.208,5.208;"/></g><g><title>Alice</title><rect x="249.083" y="72.884" width="8.333" height="47.884" fill="#000" fill-opacity="0"/><line x1="252.729" y1="72.884" x2="252.729" y2="120.768" style="stroke:#F3969A;stroke-width:1.042;stroke-dasharray:5.208,5.208;"/></g><rect x="57.292" y="20.833" width="65.824" height="45.801" fill="#86C8B5" style="stroke:#78C2AD;stroke-width:1.042;" rx="4.167" ry="4.167"/><text x="78.125" y="48.061" fill="#FFF" font-size="12.5" textLength="24.158" font-family="'Verdana'">Bob</text><rect x="216.866" y="20.833" width="71.726" height="45.801" fill="#86C8B5" style="stroke:#78C2AD;stroke-width:1.042;" rx="4.167" ry="4.167"/><text x="237.699" y="48.061" fill="#FFF" font-size="12.5" textLength="30.06" font-family="'Verdana'">Alice</text><rect x="57.292" y="125.977" width="65.824" height="45.801" fill="#86C8B5" style="stroke:#78C2AD;stroke-width:1.042;" rx="4.167" ry="4.167"/><text x="78.125" y="153.204" fill="#FFF" font-size="12.5" textLength="24.158" font-family="'Verdana'">Bob</text><rect x="216.866" y="125.977" width="71.726" height="45.801" fill="#86C8B5" style="stroke:#78C2AD;stroke-width:1.042;" rx="4.167" ry="4.167"/><text x="237.699" y="153.204" fill="#FFF" font-size="12.5" textLength="30.06" font-family="'Verdana'">Alice</text><polygon points="240.229,97.852,250.646,102.018,240.229,106.185,244.396,102.018" fill="#78C2AD" style="stroke:#78C2AD;stroke-width:1.042;stroke-linejoin:miter;stroke-miterlimit:10;"/><line x1="90.204" y1="102.018" x2="246.479" y2="102.018" style="stroke:#78C2AD;stroke-width:3.125;"/><text x="97.496" y="96.987" fill="#FFF" font-size="12.5" textLength="30.206" font-family="'Verdana'">hello</text></g></svg>